# xmcd
#
# Track frame offsets: 
#        150
#        28891
#        51259
#        81507
#        106256
#        132666
#        168663
#
# Disc length: 2359 seconds
#
# Revision: 2
# Processed by: cddbd v1.5.1PL2 Copyright (c) Steve Scherf et al.
# Submitted via: ExactAudioCopy v0.95b3
#
DISCID=64093507
DTITLE=Dr. John - The Sun, Moon and Herbs
DYEAR=1971
DGENRE=Rock
TTITLE0=Black John the Conqueror 
TTITLE1=Where Ya at Mule
TTITLE2=Craney Crow
TTITLE3=Familiar Reality (Opening) 
TTITLE4=Pots on Fiyo (File Gumbo)/Who I Got to Fall on (If the Pot Get
TTITLE4=Heavy)
TTITLE5=Zu Zu Mamou
TTITLE6=Familiar Reality (Reprise) 
EXTD=
EXTT0=
EXTT1=
EXTT2=
EXTT3=
EXTT4=
EXTT5=
EXTT6=
PLAYORDER=
